<?xml version="1.0" encoding="UTF-8"?> <svg xmlns="http://www.w3.org/2000/svg" width="276" height="106" viewBox="0 0 276 106" fill="none"><path d="M99.4357 72.484V72.9562C99.4357 73.112 99.3384 73.2094 99.1436 73.2483L98.4377 73.3506C98.4962 73.4869 98.5448 73.6281 98.5789 73.7741C98.613 73.9202 98.6325 74.0808 98.6325 74.2464C98.6325 74.5725 98.5692 74.8646 98.4426 75.1275C98.316 75.3904 98.1456 75.6144 97.9217 75.7993C97.7026 75.9843 97.4397 76.1304 97.133 76.2278C96.8263 76.33 96.4953 76.3787 96.1301 76.3787C95.8332 76.3787 95.5508 76.3446 95.2928 76.2813C95.1613 76.3592 95.064 76.4468 94.9958 76.5393C94.9277 76.6318 94.8936 76.7243 94.8936 76.8168C94.8936 76.9677 94.9569 77.0797 95.0835 77.1527C95.21 77.2258 95.3756 77.2793 95.5849 77.3134C95.7894 77.3475 96.0279 77.3669 96.2957 77.3767C96.5634 77.3864 96.8312 77.401 97.1087 77.4205C97.3813 77.44 97.6539 77.474 97.9217 77.5227C98.1894 77.5714 98.4231 77.6542 98.6276 77.7613C98.8321 77.8733 98.9976 78.0242 99.129 78.214C99.2556 78.4088 99.3189 78.6571 99.3189 78.9638C99.3189 79.251 99.2507 79.5285 99.1096 79.7962C98.9684 80.064 98.7639 80.3025 98.4962 80.5119C98.2284 80.7212 97.9022 80.8867 97.5176 81.0133C97.133 81.1399 96.6949 81.2032 96.2032 81.2032C95.7115 81.2032 95.2879 81.1545 94.9277 81.062C94.5674 80.9646 94.2656 80.8381 94.027 80.6774C93.7885 80.5167 93.6084 80.3318 93.4866 80.1175C93.3649 79.9033 93.3065 79.6843 93.3065 79.4555C93.3065 79.1341 93.4088 78.8615 93.6035 78.6424C93.8031 78.4185 94.0757 78.2432 94.4262 78.1215C94.2364 78.0339 94.0854 77.9171 93.9735 77.7661C93.8615 77.6152 93.8031 77.4205 93.8031 77.1722C93.8031 77.0748 93.8226 76.9775 93.8566 76.8752C93.8907 76.773 93.9443 76.6708 94.0173 76.5685C94.0903 76.4663 94.1779 76.3689 94.285 76.2813C94.3922 76.1888 94.5139 76.1061 94.6502 76.033C94.324 75.8529 94.0708 75.6095 93.881 75.3076C93.696 75.0058 93.6035 74.6553 93.6035 74.2512C93.6035 73.925 93.6668 73.6329 93.7934 73.3749C93.9199 73.1169 94.0952 72.893 94.3143 72.708C94.5382 72.523 94.8011 72.3769 95.1127 72.2795C95.4242 72.1822 95.7602 72.1286 96.1301 72.1286C96.6997 72.1286 97.1914 72.2455 97.6052 72.484H99.4357ZM98.1505 79.1828C98.1505 79.027 98.1067 78.9005 98.0191 78.808C97.9314 78.7155 97.8146 78.6424 97.6637 78.5889C97.5127 78.5353 97.3375 78.4964 97.1428 78.4721C96.948 78.4477 96.7338 78.4282 96.5147 78.4185C96.2957 78.4039 96.0717 78.3942 95.8429 78.3844C95.6141 78.3747 95.3902 78.3552 95.1808 78.3211C94.9569 78.4331 94.7719 78.5694 94.6258 78.7301C94.4798 78.8907 94.4068 79.0806 94.4068 79.2948C94.4068 79.4311 94.4408 79.5626 94.5139 79.6843C94.5869 79.806 94.694 79.9082 94.8449 80.0007C94.9958 80.0883 95.1808 80.1565 95.4096 80.21C95.6384 80.2587 95.9111 80.2831 96.2226 80.2831C96.5342 80.2831 96.8117 80.2539 97.0454 80.2003C97.2791 80.1468 97.4835 80.0689 97.6442 79.9715C97.8048 79.8741 97.9314 79.7573 98.0142 79.6259C98.0969 79.4895 98.1408 79.3435 98.1408 79.1828H98.1505ZM96.1301 75.5462C96.3541 75.5462 96.5537 75.517 96.7241 75.4537C96.8945 75.3904 97.0405 75.3076 97.1525 75.1957C97.2693 75.0837 97.3521 74.9523 97.4105 74.7965C97.4689 74.6407 97.4981 74.4703 97.4981 74.2853C97.4981 73.9056 97.3813 73.5989 97.1525 73.3701C96.9188 73.1412 96.578 73.0293 96.1301 73.0293C95.6823 73.0293 95.3463 73.1412 95.1127 73.3701C94.879 73.5989 94.767 73.9007 94.767 74.2853C94.767 74.4703 94.7962 74.6407 94.8546 74.7965C94.9131 74.9523 95.0007 75.0837 95.1127 75.1908C95.2295 75.3028 95.3707 75.3855 95.5411 75.4488C95.7115 75.5121 95.9062 75.5413 96.1301 75.5413V75.5462Z" fill="#442667"></path><path d="M102.177 73.5064C102.391 73.0731 102.644 72.7323 102.946 72.484C103.243 72.2358 103.603 72.114 104.022 72.114C104.163 72.114 104.299 72.1287 104.426 72.1627C104.552 72.1968 104.664 72.2455 104.762 72.3088L104.679 73.263C104.65 73.3798 104.577 73.4382 104.465 73.4382C104.406 73.4382 104.314 73.4285 104.192 73.4042C104.07 73.3798 103.939 73.3701 103.803 73.3701C103.598 73.3701 103.418 73.3993 103.262 73.4577C103.106 73.5161 102.965 73.6038 102.844 73.7157C102.722 73.8326 102.61 73.9689 102.517 74.1393C102.42 74.3048 102.332 74.4947 102.25 74.7089V78.8421H100.984V72.2406H101.709C101.85 72.2406 101.943 72.265 101.992 72.3136C102.04 72.3623 102.079 72.45 102.099 72.5765L102.177 73.5064Z" fill="#442667"></path><path d="M105.862 73.1607C106.232 72.8102 106.631 72.5473 107.06 72.3769C107.488 72.2017 107.965 72.1189 108.481 72.1189C108.856 72.1189 109.192 72.1822 109.484 72.3039C109.776 72.4256 110.02 72.6009 110.219 72.8199C110.419 73.039 110.57 73.3068 110.672 73.6135C110.774 73.9202 110.823 74.261 110.823 74.6309V78.842H110.258C110.131 78.842 110.039 78.8226 109.971 78.7788C109.908 78.7398 109.854 78.6619 109.815 78.5499L109.679 77.9706C109.508 78.1264 109.343 78.2627 109.177 78.3844C109.012 78.5061 108.841 78.6035 108.661 78.6911C108.481 78.7788 108.291 78.8372 108.087 78.881C107.882 78.9248 107.658 78.9443 107.41 78.9443C107.152 78.9443 106.909 78.9102 106.68 78.8372C106.451 78.7641 106.256 78.657 106.086 78.511C105.916 78.3649 105.784 78.18 105.687 77.9609C105.589 77.7418 105.541 77.4838 105.541 77.1868C105.541 76.9288 105.609 76.6756 105.75 76.4371C105.891 76.1985 106.12 75.9795 106.436 75.7896C106.753 75.5997 107.172 75.444 107.683 75.3222C108.194 75.2005 108.827 75.1324 109.576 75.1129V74.6309C109.576 74.1344 109.469 73.7595 109.26 73.5161C109.046 73.2678 108.734 73.1461 108.325 73.1461C108.048 73.1461 107.814 73.1802 107.629 73.2483C107.439 73.3165 107.279 73.3944 107.142 73.4772C107.006 73.5599 106.884 73.6378 106.787 73.706C106.685 73.7741 106.582 73.8082 106.471 73.8082C106.383 73.8082 106.31 73.7839 106.247 73.7352C106.183 73.6865 106.135 73.6329 106.096 73.5648L105.867 73.1558L105.862 73.1607ZM109.576 75.9113C109.06 75.9308 108.622 75.9697 108.262 76.033C107.902 76.0963 107.61 76.1791 107.386 76.2813C107.162 76.3835 106.996 76.5052 106.899 76.6464C106.797 76.7876 106.748 76.9434 106.748 77.1187C106.748 77.2939 106.772 77.4254 106.831 77.5422C106.884 77.659 106.957 77.7564 107.05 77.8343C107.142 77.9122 107.254 77.9657 107.376 77.9998C107.498 78.0339 107.639 78.0534 107.785 78.0534C107.98 78.0534 108.16 78.0339 108.32 77.995C108.481 77.956 108.637 77.9025 108.778 77.8294C108.919 77.7564 109.056 77.6688 109.187 77.5665C109.318 77.4643 109.445 77.3426 109.572 77.2112V75.9113H109.576Z" fill="#442667"></path><path d="M114.109 73.2289C114.245 73.0634 114.396 72.9124 114.552 72.7761C114.708 72.6398 114.878 72.523 115.063 72.4256C115.243 72.3283 115.438 72.2504 115.642 72.1968C115.847 72.1433 116.066 72.114 116.3 72.114C116.674 72.114 117.015 72.1871 117.322 72.3331C117.629 72.4792 117.887 72.6982 118.106 72.9806C118.32 73.2678 118.49 73.6184 118.607 74.0419C118.724 74.4606 118.787 74.9425 118.787 75.4927C118.787 75.9844 118.719 76.4371 118.588 76.8558C118.456 77.2745 118.266 77.6347 118.023 77.9463C117.78 78.2579 117.478 78.4964 117.127 78.6717C116.777 78.8469 116.377 78.9346 115.934 78.9346C115.54 78.9346 115.204 78.8713 114.922 78.7398C114.639 78.6084 114.391 78.4283 114.167 78.1946V81.0571H112.901V72.2406H113.661C113.836 72.2406 113.948 72.3234 113.992 72.4938L114.104 73.2289H114.109ZM114.172 77.216C114.381 77.4887 114.605 77.6785 114.844 77.7856C115.082 77.8927 115.355 77.9463 115.652 77.9463C116.231 77.9463 116.684 77.737 117.001 77.3183C117.317 76.8996 117.478 76.2911 117.478 75.4878C117.478 75.0691 117.444 74.7089 117.371 74.4119C117.298 74.1149 117.195 73.8715 117.059 73.6865C116.923 73.4966 116.757 73.3603 116.558 73.2727C116.358 73.1851 116.134 73.1413 115.881 73.1413C115.511 73.1413 115.194 73.224 114.922 73.3895C114.649 73.5551 114.401 73.7887 114.172 74.0906V77.216Z" fill="#442667"></path><path d="M121.874 73.078C122.151 72.7956 122.458 72.5668 122.794 72.3964C123.13 72.2211 123.514 72.1384 123.953 72.1384C124.318 72.1384 124.634 72.1968 124.912 72.3185C125.189 72.4402 125.418 72.6106 125.603 72.8297C125.788 73.0488 125.929 73.3116 126.026 73.6183C126.124 73.9251 126.168 74.2658 126.168 74.6407V78.8421H124.892V74.6407C124.892 74.1685 124.785 73.8034 124.566 73.5405C124.347 73.2776 124.021 73.1461 123.573 73.1461C123.247 73.1461 122.945 73.224 122.662 73.3749C122.38 73.5307 122.117 73.7401 121.874 74.003V78.8421H120.608V69.2515H121.874V73.078Z" fill="#442667"></path><path d="M129.829 70.2008C129.829 70.3176 129.804 70.4296 129.756 70.5367C129.707 70.6438 129.644 70.7363 129.566 70.8142C129.483 70.8921 129.391 70.9553 129.283 71.004C129.176 71.0478 129.064 71.0722 128.947 71.0722C128.831 71.0722 128.719 71.0478 128.616 71.004C128.514 70.9602 128.422 70.8969 128.339 70.8142C128.256 70.7314 128.198 70.6389 128.149 70.5367C128.1 70.4344 128.081 70.3176 128.081 70.2008C128.081 70.0839 128.105 69.9671 128.149 69.86C128.193 69.7529 128.256 69.6604 128.339 69.5825C128.422 69.5046 128.509 69.4413 128.616 69.3926C128.719 69.3488 128.831 69.3245 128.947 69.3245C129.064 69.3245 129.176 69.3488 129.283 69.3926C129.391 69.4364 129.488 69.4997 129.566 69.5825C129.644 69.6604 129.707 69.7577 129.756 69.86C129.804 69.9671 129.829 70.0791 129.829 70.2008ZM129.59 72.2406V78.842H128.324V72.2406H129.59Z" fill="#442667"></path><path d="M135.71 73.3749C135.676 73.4333 135.637 73.4723 135.598 73.4966C135.559 73.521 135.51 73.5307 135.447 73.5307C135.379 73.5307 135.301 73.5064 135.218 73.4577C135.135 73.409 135.033 73.3603 134.911 73.3019C134.79 73.2435 134.653 73.1948 134.493 73.1461C134.332 73.0974 134.142 73.0731 133.923 73.0731C133.743 73.0731 133.577 73.0974 133.426 73.1412C133.275 73.1851 133.149 73.2483 133.047 73.3311C132.944 73.4139 132.862 73.5064 132.808 73.6183C132.75 73.7303 132.725 73.8472 132.725 73.9737C132.725 74.1393 132.774 74.2756 132.871 74.3827C132.969 74.4898 133.095 74.5823 133.256 74.6602C133.412 74.738 133.592 74.8062 133.796 74.8695C134.001 74.9328 134.205 74.9961 134.415 75.0691C134.624 75.1373 134.828 75.2151 135.033 75.3076C135.233 75.3953 135.413 75.5072 135.573 75.6387C135.734 75.7701 135.861 75.9308 135.958 76.1158C136.055 76.3008 136.104 76.5296 136.104 76.7973C136.104 77.1041 136.05 77.3913 135.938 77.6493C135.826 77.9122 135.666 78.1361 135.452 78.326C135.237 78.5159 134.97 78.6668 134.658 78.7739C134.347 78.881 133.981 78.9345 133.572 78.9345C133.12 78.9345 132.696 78.8567 132.312 78.7057C131.927 78.5548 131.606 78.3601 131.343 78.1264L131.64 77.6396C131.674 77.5812 131.718 77.5325 131.771 77.4984C131.825 77.4643 131.893 77.4497 131.981 77.4497C132.068 77.4497 132.146 77.4789 132.234 77.5422C132.321 77.6055 132.424 77.6688 132.545 77.7418C132.667 77.8148 132.813 77.8781 132.988 77.9365C133.164 77.995 133.378 78.0242 133.636 78.0242C133.85 78.0242 134.04 77.995 134.2 77.9414C134.361 77.8879 134.493 77.8148 134.6 77.7223C134.707 77.6298 134.785 77.5227 134.838 77.401C134.892 77.2793 134.916 77.1527 134.916 77.0164C134.916 76.8412 134.867 76.7 134.77 76.5831C134.673 76.4663 134.546 76.3689 134.385 76.2862C134.225 76.2034 134.045 76.1304 133.845 76.072C133.645 76.0136 133.431 75.9454 133.222 75.8772C133.008 75.8091 132.803 75.7263 132.599 75.6387C132.394 75.5462 132.214 75.4342 132.058 75.293C131.903 75.1567 131.771 74.9863 131.674 74.7867C131.576 74.5871 131.528 74.3437 131.528 74.0614C131.528 73.8082 131.581 73.5599 131.688 73.3262C131.796 73.0926 131.946 72.8881 132.151 72.708C132.351 72.5327 132.599 72.3867 132.896 72.2844C133.193 72.1822 133.534 72.1238 133.913 72.1238C134.351 72.1238 134.746 72.1919 135.096 72.3331C135.452 72.4694 135.753 72.6641 136.002 72.9027L135.724 73.3652L135.71 73.3749Z" fill="#442667"></path><path d="M137.852 78.8372V72.2357H138.611C138.786 72.2357 138.898 72.3185 138.942 72.4889L139.035 73.1169C139.278 72.8248 139.546 72.5911 139.843 72.4061C140.14 72.2211 140.485 72.1286 140.885 72.1286C141.323 72.1286 141.678 72.2503 141.951 72.4889C142.223 72.7274 142.423 73.0536 142.55 73.4674C142.647 73.2337 142.769 73.0341 142.92 72.8638C143.07 72.6934 143.241 72.557 143.426 72.4499C143.611 72.3428 143.81 72.2601 144.02 72.2114C144.229 72.1578 144.443 72.1335 144.658 72.1335C145.008 72.1335 145.32 72.1871 145.597 72.299C145.875 72.411 146.103 72.5716 146.293 72.781C146.483 72.9952 146.629 73.2532 146.727 73.5648C146.824 73.8764 146.878 74.2317 146.878 74.6309V78.8323H145.602V74.6309C145.602 74.1392 145.495 73.7644 145.281 73.5112C145.067 73.2581 144.755 73.1364 144.341 73.1364C144.161 73.1364 143.986 73.1656 143.82 73.2289C143.655 73.2922 143.514 73.3847 143.387 73.5112C143.265 73.6378 143.168 73.7936 143.095 73.9786C143.022 74.1636 142.988 74.3827 142.988 74.6261V78.8274H141.712V74.6261C141.712 74.1149 141.61 73.74 141.406 73.4966C141.201 73.2532 140.904 73.1315 140.51 73.1315C140.237 73.1315 139.984 73.2045 139.75 73.3457C139.517 73.4869 139.302 73.6816 139.108 73.9299V78.8274H137.842L137.852 78.8372Z" fill="#442667"></path><path d="M154.399 77.8976C154.243 78.0777 154.063 78.2384 153.859 78.3698C153.654 78.5013 153.44 78.6084 153.211 78.6911C152.982 78.7739 152.744 78.8323 152.5 78.8713C152.257 78.9102 152.014 78.9297 151.775 78.9297C151.322 78.9297 150.899 78.8518 150.509 78.7009C150.12 78.5451 149.784 78.3211 149.502 78.0242C149.219 77.7272 148.995 77.3572 148.839 76.9191C148.684 76.4809 148.601 75.9746 148.601 75.4001C148.601 74.9425 148.674 74.5141 148.815 74.1149C148.956 73.7206 149.161 73.3749 149.429 73.078C149.696 72.7859 150.022 72.5522 150.407 72.3818C150.792 72.2114 151.225 72.1286 151.707 72.1286C152.111 72.1286 152.481 72.1968 152.822 72.3282C153.163 72.4597 153.455 72.6544 153.703 72.9027C153.951 73.1558 154.146 73.4626 154.282 73.8325C154.423 74.2025 154.492 74.6212 154.492 75.0934C154.492 75.2882 154.472 75.4196 154.428 75.4878C154.384 75.5559 154.307 75.59 154.19 75.59H149.862C149.876 75.9843 149.93 76.3251 150.032 76.6172C150.13 76.9093 150.271 77.1527 150.446 77.3475C150.621 77.5422 150.831 77.6883 151.074 77.7808C151.317 77.8733 151.585 77.9219 151.887 77.9219C152.169 77.9219 152.413 77.8879 152.617 77.8246C152.822 77.7613 153.002 77.6883 153.148 77.6152C153.299 77.5373 153.421 77.4692 153.523 77.4059C153.625 77.3426 153.713 77.3085 153.791 77.3085C153.893 77.3085 153.976 77.3475 154.029 77.4254L154.394 77.8927L154.399 77.8976ZM153.352 74.8062C153.352 74.5531 153.318 74.3242 153.245 74.11C153.172 73.8958 153.07 73.7157 152.929 73.5599C152.788 73.4041 152.622 73.2824 152.423 73.1948C152.223 73.1072 151.994 73.0633 151.736 73.0633C151.205 73.0633 150.782 73.2191 150.48 73.5258C150.173 73.8325 149.979 74.261 149.901 74.8062H153.357H153.352Z" fill="#442667"></path><path d="M160.285 74.9815C160.285 74.631 160.353 74.2999 160.484 73.9932C160.616 73.6865 160.796 73.4187 161.025 73.1899C161.254 72.9611 161.517 72.781 161.818 72.6496C162.12 72.5181 162.446 72.45 162.792 72.45C163.138 72.45 163.464 72.5181 163.771 72.6496C164.077 72.781 164.345 72.9611 164.574 73.1899C164.803 73.4187 164.983 73.6865 165.114 73.9932C165.246 74.2999 165.314 74.631 165.314 74.9815C165.314 75.332 165.246 75.6533 165.114 75.9551C164.983 76.257 164.803 76.5247 164.574 76.7535C164.345 76.9824 164.077 77.1625 163.771 77.2939C163.464 77.4254 163.138 77.4935 162.792 77.4935C162.446 77.4935 162.12 77.4254 161.818 77.2939C161.517 77.1625 161.249 76.9824 161.025 76.7535C160.801 76.5247 160.616 76.257 160.484 75.9551C160.353 75.6533 160.285 75.3271 160.285 74.9815Z" fill="#442667"></path><path d="M173.084 70.2008C173.084 70.3176 173.059 70.4296 173.011 70.5367C172.962 70.6438 172.899 70.7363 172.821 70.8142C172.738 70.8921 172.646 70.9553 172.538 71.004C172.431 71.0478 172.319 71.0722 172.202 71.0722C172.086 71.0722 171.974 71.0478 171.871 71.004C171.769 70.9602 171.677 70.8969 171.594 70.8142C171.511 70.7314 171.453 70.6389 171.404 70.5367C171.355 70.4344 171.336 70.3176 171.336 70.2008C171.336 70.0839 171.36 69.9671 171.404 69.86C171.448 69.7529 171.511 69.6604 171.594 69.5825C171.677 69.5046 171.764 69.4413 171.871 69.3926C171.974 69.3488 172.086 69.3245 172.202 69.3245C172.319 69.3245 172.431 69.3488 172.538 69.3926C172.646 69.4364 172.743 69.4997 172.821 69.5825C172.899 69.6604 172.962 69.7577 173.011 69.86C173.059 69.9671 173.084 70.0791 173.084 70.2008ZM172.84 72.2406V78.842H171.574V72.2406H172.84Z" fill="#442667"></path><path d="M176.37 69.2515V78.8421H175.094V69.2515H176.37Z" fill="#442667"></path><path d="M179.865 69.2515V78.8421H178.59V69.2515H179.865Z" fill="#442667"></path><path d="M187.547 72.2406V78.8421H186.788C186.613 78.8421 186.501 78.7593 186.452 78.5889L186.36 77.9268C186.218 78.0777 186.068 78.2189 185.912 78.3406C185.756 78.4623 185.59 78.5743 185.41 78.6619C185.23 78.7496 185.045 78.8226 184.846 78.8713C184.646 78.9199 184.432 78.9443 184.203 78.9443C183.838 78.9443 183.521 78.8859 183.244 78.7642C182.966 78.6425 182.738 78.4721 182.553 78.253C182.368 78.0339 182.226 77.771 182.129 77.4643C182.032 77.1576 181.988 76.8168 181.988 76.4468V72.2455H183.263V76.4468C183.263 76.9191 183.37 77.2842 183.59 77.5471C183.804 77.81 184.135 77.9414 184.583 77.9414C184.909 77.9414 185.211 77.8635 185.493 77.7126C185.775 77.5568 186.038 77.3475 186.287 77.0797V72.2455H187.552L187.547 72.2406Z" fill="#442667"></path><path d="M193.604 73.3749C193.57 73.4333 193.531 73.4723 193.492 73.4966C193.453 73.521 193.404 73.5307 193.341 73.5307C193.273 73.5307 193.195 73.5064 193.112 73.4577C193.029 73.409 192.927 73.3603 192.805 73.3019C192.684 73.2435 192.547 73.1948 192.387 73.1461C192.226 73.0974 192.036 73.0731 191.817 73.0731C191.637 73.0731 191.471 73.0974 191.32 73.1412C191.17 73.1851 191.043 73.2483 190.941 73.3311C190.838 73.4139 190.756 73.5064 190.702 73.6183C190.644 73.7303 190.619 73.8472 190.619 73.9737C190.619 74.1393 190.668 74.2756 190.765 74.3827C190.863 74.4898 190.989 74.5823 191.15 74.6602C191.306 74.738 191.486 74.8062 191.69 74.8695C191.895 74.9328 192.099 74.9961 192.309 75.0691C192.518 75.1373 192.723 75.2151 192.927 75.3076C193.127 75.3953 193.307 75.5072 193.467 75.6387C193.628 75.7701 193.755 75.9308 193.852 76.1158C193.949 76.3008 193.998 76.5296 193.998 76.7973C193.998 77.1041 193.944 77.3913 193.833 77.6493C193.721 77.9122 193.56 78.1361 193.346 78.326C193.131 78.5159 192.864 78.6668 192.552 78.7739C192.241 78.881 191.875 78.9345 191.467 78.9345C191.014 78.9345 190.59 78.8567 190.206 78.7057C189.821 78.5548 189.5 78.3601 189.237 78.1264L189.534 77.6396C189.568 77.5812 189.612 77.5325 189.665 77.4984C189.719 77.4643 189.787 77.4497 189.875 77.4497C189.962 77.4497 190.04 77.4789 190.128 77.5422C190.215 77.6055 190.318 77.6688 190.439 77.7418C190.561 77.8148 190.707 77.8781 190.882 77.9365C191.058 77.995 191.272 78.0242 191.53 78.0242C191.744 78.0242 191.934 77.995 192.095 77.9414C192.255 77.8879 192.387 77.8148 192.494 77.7223C192.601 77.6298 192.679 77.5227 192.732 77.401C192.786 77.2793 192.81 77.1527 192.81 77.0164C192.81 76.8412 192.761 76.7 192.664 76.5831C192.567 76.4663 192.44 76.3689 192.28 76.2862C192.119 76.2034 191.939 76.1304 191.739 76.072C191.54 76.0136 191.325 75.9454 191.116 75.8772C190.902 75.8091 190.697 75.7263 190.493 75.6387C190.288 75.5462 190.108 75.4342 189.952 75.293C189.797 75.1567 189.665 74.9863 189.568 74.7867C189.47 74.5871 189.422 74.3437 189.422 74.0614C189.422 73.8082 189.475 73.5599 189.582 73.3262C189.69 73.0926 189.84 72.8881 190.045 72.708C190.245 72.5327 190.493 72.3867 190.79 72.2844C191.087 72.1822 191.428 72.1238 191.807 72.1238C192.245 72.1238 192.64 72.1919 192.99 72.3331C193.346 72.4694 193.648 72.6641 193.896 72.9027L193.618 73.3652L193.604 73.3749Z" fill="#442667"></path><path d="M197.81 78.9443C197.279 78.9443 196.865 78.7934 196.578 78.4964C196.291 78.1994 196.145 77.771 196.145 77.216V73.2678H195.381C195.308 73.2678 195.244 73.2435 195.196 73.1997C195.147 73.1559 195.123 73.0877 195.123 72.9952V72.484L196.194 72.3331L196.481 70.3663C196.5 70.2933 196.53 70.2349 196.583 70.1959C196.632 70.157 196.695 70.1326 196.773 70.1326H197.416V72.3477H199.285V73.2678H197.416V77.1333C197.416 77.3913 197.479 77.586 197.605 77.7126C197.732 77.8392 197.898 77.9025 198.097 77.9025C198.214 77.9025 198.316 77.8879 198.399 77.8587C198.482 77.8294 198.555 77.7954 198.618 77.7564C198.676 77.7175 198.73 77.6883 198.774 77.6542C198.818 77.625 198.857 77.6104 198.891 77.6104C198.934 77.6104 198.969 77.6201 198.993 77.6396C199.017 77.6591 199.042 77.6883 199.066 77.7321L199.441 78.3406C199.231 78.5305 198.988 78.6765 198.701 78.7836C198.414 78.8859 198.117 78.9394 197.81 78.9394V78.9443Z" fill="#442667"></path><path d="M202.036 73.5064C202.25 73.0731 202.503 72.7323 202.805 72.484C203.102 72.2358 203.462 72.114 203.881 72.114C204.022 72.114 204.158 72.1287 204.285 72.1627C204.411 72.1968 204.523 72.2455 204.621 72.3088L204.538 73.263C204.509 73.3798 204.436 73.4382 204.324 73.4382C204.265 73.4382 204.173 73.4285 204.051 73.4042C203.929 73.3798 203.798 73.3701 203.662 73.3701C203.457 73.3701 203.277 73.3993 203.121 73.4577C202.965 73.5161 202.824 73.6038 202.703 73.7157C202.581 73.8326 202.469 73.9689 202.376 74.1393C202.279 74.3048 202.191 74.4947 202.109 74.7089V78.8421H200.843V72.2406H201.568C201.709 72.2406 201.802 72.265 201.851 72.3136C201.899 72.3623 201.938 72.45 201.958 72.5765L202.036 73.5064Z" fill="#442667"></path><path d="M205.716 73.1607C206.086 72.8102 206.485 72.5473 206.914 72.3769C207.342 72.2017 207.819 72.1189 208.335 72.1189C208.71 72.1189 209.046 72.1822 209.338 72.3039C209.63 72.4256 209.874 72.6009 210.073 72.8199C210.273 73.039 210.424 73.3068 210.526 73.6135C210.628 73.9202 210.677 74.261 210.677 74.6309V78.842H210.112C209.986 78.842 209.893 78.8226 209.825 78.7788C209.762 78.7398 209.708 78.6619 209.669 78.5499L209.533 77.9706C209.362 78.1264 209.197 78.2627 209.031 78.3844C208.866 78.5061 208.695 78.6035 208.515 78.6911C208.335 78.7788 208.145 78.8372 207.941 78.881C207.736 78.9248 207.512 78.9443 207.264 78.9443C207.006 78.9443 206.763 78.9102 206.534 78.8372C206.305 78.7641 206.11 78.657 205.94 78.511C205.77 78.3649 205.638 78.18 205.541 77.9609C205.443 77.7418 205.395 77.4838 205.395 77.1868C205.395 76.9288 205.463 76.6756 205.604 76.4371C205.745 76.1985 205.974 75.9795 206.29 75.7896C206.607 75.5997 207.026 75.444 207.537 75.3222C208.048 75.2005 208.681 75.1324 209.431 75.1129V74.6309C209.431 74.1344 209.323 73.7595 209.114 73.5161C208.9 73.2678 208.588 73.1461 208.179 73.1461C207.902 73.1461 207.668 73.1802 207.483 73.2483C207.293 73.3165 207.133 73.3944 206.996 73.4772C206.86 73.5599 206.738 73.6378 206.641 73.706C206.539 73.7741 206.437 73.8082 206.325 73.8082C206.237 73.8082 206.164 73.7839 206.101 73.7352C206.037 73.6865 205.989 73.6329 205.95 73.5648L205.721 73.1558L205.716 73.1607ZM209.435 75.9113C208.919 75.9308 208.481 75.9697 208.121 76.033C207.761 76.0963 207.469 76.1791 207.245 76.2813C207.021 76.3835 206.855 76.5052 206.758 76.6464C206.656 76.7876 206.607 76.9434 206.607 77.1187C206.607 77.2939 206.631 77.4254 206.69 77.5422C206.743 77.659 206.816 77.7564 206.909 77.8343C207.001 77.9122 207.113 77.9657 207.235 77.9998C207.357 78.0339 207.498 78.0534 207.644 78.0534C207.839 78.0534 208.019 78.0339 208.179 77.995C208.34 77.956 208.496 77.9025 208.637 77.8294C208.778 77.7564 208.915 77.6688 209.046 77.5665C209.177 77.4643 209.304 77.3426 209.431 77.2112V75.9113H209.435Z" fill="#442667"></path><path d="M214.747 78.9443C214.216 78.9443 213.802 78.7934 213.515 78.4964C213.228 78.1994 213.082 77.771 213.082 77.216V73.2678H212.318C212.245 73.2678 212.181 73.2435 212.133 73.1997C212.084 73.1559 212.06 73.0877 212.06 72.9952V72.484L213.131 72.3331L213.418 70.3663C213.437 70.2933 213.466 70.2349 213.52 70.1959C213.569 70.157 213.632 70.1326 213.71 70.1326H214.352V72.3477H216.222V73.2678H214.352V77.1333C214.352 77.3913 214.416 77.586 214.542 77.7126C214.669 77.8392 214.834 77.9025 215.034 77.9025C215.151 77.9025 215.253 77.8879 215.336 77.8587C215.419 77.8294 215.492 77.7954 215.555 77.7564C215.613 77.7175 215.667 77.6883 215.711 77.6542C215.755 77.625 215.794 77.6104 215.828 77.6104C215.871 77.6104 215.905 77.6201 215.93 77.6396C215.954 77.6591 215.979 77.6883 216.003 77.7321L216.378 78.3406C216.168 78.5305 215.925 78.6765 215.638 78.7836C215.35 78.8859 215.054 78.9394 214.747 78.9394V78.9443Z" fill="#442667"></path><path d="M219.342 70.2008C219.342 70.3176 219.318 70.4296 219.269 70.5367C219.221 70.6438 219.157 70.7363 219.08 70.8142C218.997 70.8921 218.904 70.9553 218.797 71.004C218.69 71.0478 218.578 71.0722 218.461 71.0722C218.344 71.0722 218.232 71.0478 218.13 71.004C218.028 70.9602 217.936 70.8969 217.853 70.8142C217.77 70.7314 217.712 70.6389 217.663 70.5367C217.614 70.4344 217.595 70.3176 217.595 70.2008C217.595 70.0839 217.619 69.9671 217.663 69.86C217.707 69.7529 217.77 69.6604 217.853 69.5825C217.936 69.5046 218.023 69.4413 218.13 69.3926C218.232 69.3488 218.344 69.3245 218.461 69.3245C218.578 69.3245 218.69 69.3488 218.797 69.3926C218.904 69.4364 219.002 69.4997 219.08 69.5825C219.157 69.6604 219.221 69.7577 219.269 69.86C219.318 69.9671 219.342 70.0791 219.342 70.2008ZM219.099 72.2406V78.842H217.833V72.2406H219.099Z" fill="#442667"></path><path d="M224.143 72.1335C224.629 72.1335 225.068 72.2114 225.457 72.372C225.847 72.5278 226.182 72.7566 226.455 73.0536C226.728 73.3506 226.942 73.7059 227.088 74.1246C227.234 74.5433 227.307 75.0107 227.307 75.5316C227.307 76.0525 227.234 76.5198 227.088 76.9434C226.942 77.3621 226.728 77.7223 226.455 78.0144C226.178 78.3065 225.847 78.5353 225.457 78.6911C225.063 78.8469 224.625 78.9297 224.143 78.9297C223.661 78.9297 223.213 78.8518 222.818 78.6911C222.424 78.5353 222.093 78.3065 221.816 78.0144C221.538 77.7223 221.324 77.3621 221.178 76.9434C221.027 76.5247 220.954 76.0525 220.954 75.5316C220.954 75.0107 221.027 74.5433 221.178 74.1246C221.329 73.7059 221.543 73.3506 221.816 73.0536C222.088 72.7566 222.429 72.5278 222.818 72.372C223.208 72.2162 223.651 72.1335 224.143 72.1335ZM224.143 77.9414C224.766 77.9414 225.233 77.7321 225.54 77.3134C225.847 76.8947 226.002 76.3008 226.002 75.5413C226.002 74.7819 225.847 74.1879 225.54 73.7644C225.233 73.3408 224.766 73.1315 224.143 73.1315C223.519 73.1315 223.037 73.3408 222.731 73.7644C222.419 74.1879 222.268 74.777 222.268 75.5413C222.268 76.3056 222.424 76.8947 222.731 77.3134C223.042 77.7321 223.51 77.9414 224.143 77.9414Z" fill="#442667"></path><path d="M230.301 73.1558C230.442 73.0049 230.593 72.8637 230.749 72.742C230.905 72.6203 231.07 72.5084 231.245 72.4207C231.421 72.3331 231.611 72.2649 231.81 72.2114C232.01 72.1627 232.229 72.1384 232.458 72.1384C232.823 72.1384 233.139 72.1968 233.417 72.3185C233.694 72.4402 233.923 72.6106 234.108 72.8297C234.293 73.0487 234.434 73.3116 234.532 73.6183C234.629 73.925 234.673 74.2658 234.673 74.6407V78.842H233.397V74.6407C233.397 74.1685 233.29 73.8033 233.071 73.5404C232.852 73.2776 232.526 73.1461 232.078 73.1461C231.752 73.1461 231.45 73.224 231.168 73.3749C230.885 73.5307 230.622 73.74 230.379 74.0029V78.842H229.113V72.2406H229.873C230.048 72.2406 230.16 72.3234 230.204 72.4938L230.301 73.1558Z" fill="#442667"></path><path d="M240.802 74.9815C240.802 74.631 240.87 74.2999 241.002 73.9932C241.133 73.6865 241.313 73.4187 241.542 73.1899C241.771 72.9611 242.034 72.781 242.336 72.6496C242.637 72.5181 242.964 72.45 243.309 72.45C243.655 72.45 243.981 72.5181 244.288 72.6496C244.594 72.781 244.862 72.9611 245.091 73.1899C245.32 73.4187 245.5 73.6865 245.631 73.9932C245.763 74.2999 245.831 74.631 245.831 74.9815C245.831 75.332 245.763 75.6533 245.631 75.9551C245.5 76.257 245.32 76.5247 245.091 76.7535C244.862 76.9824 244.594 77.1625 244.288 77.2939C243.981 77.4254 243.655 77.4935 243.309 77.4935C242.964 77.4935 242.637 77.4254 242.336 77.2939C242.034 77.1625 241.766 76.9824 241.542 76.7535C241.318 76.5247 241.133 76.257 241.002 75.9551C240.87 75.6533 240.802 75.3271 240.802 74.9815Z" fill="#442667"></path><path d="M260.947 72.2406L258.825 78.8421H257.812C257.69 78.8421 257.607 78.7642 257.564 78.6035L256.171 74.3048C256.137 74.1977 256.108 74.0906 256.079 73.9835C256.05 73.8764 256.03 73.7693 256.006 73.6622C255.967 73.8861 255.913 74.1052 255.845 74.3194L254.433 78.6084C254.39 78.769 254.297 78.8469 254.156 78.8469H253.197L251.064 72.2455H252.067C252.165 72.2455 252.252 72.2698 252.316 72.3185C252.384 72.3672 252.428 72.4256 252.447 72.4986L253.635 76.554C253.674 76.7195 253.708 76.8801 253.737 77.0359C253.766 77.1917 253.796 77.3475 253.82 77.5033C253.859 77.3475 253.903 77.1917 253.947 77.0359C253.99 76.8801 254.039 76.7195 254.088 76.554L255.407 72.4743C255.426 72.4013 255.47 72.3429 255.529 72.2942C255.587 72.2504 255.665 72.226 255.748 72.226H256.298C256.395 72.226 256.473 72.2504 256.536 72.2942C256.6 72.338 256.644 72.4013 256.663 72.4743L257.948 76.554C257.997 76.7195 258.041 76.8801 258.085 77.0359C258.128 77.1917 258.167 77.3524 258.201 77.513C258.226 77.3572 258.26 77.2014 258.294 77.0408C258.328 76.885 258.367 76.7195 258.411 76.5491L259.618 72.4938C259.638 72.4207 259.681 72.3575 259.75 72.3136C259.818 72.265 259.891 72.2406 259.978 72.2406H260.933H260.947Z" fill="#442667"></path><path d="M267.738 77.8976C267.583 78.0777 267.403 78.2384 267.198 78.3698C266.994 78.5013 266.779 78.6084 266.551 78.6911C266.322 78.7739 266.083 78.8323 265.84 78.8713C265.596 78.9102 265.353 78.9297 265.114 78.9297C264.662 78.9297 264.238 78.8518 263.849 78.7009C263.459 78.5451 263.123 78.3211 262.841 78.0242C262.559 77.7272 262.335 77.3572 262.179 76.9191C262.023 76.4809 261.94 75.9746 261.94 75.4001C261.94 74.9425 262.013 74.5141 262.155 74.1149C262.296 73.7206 262.5 73.3749 262.768 73.078C263.036 72.7859 263.362 72.5522 263.746 72.3818C264.131 72.2114 264.564 72.1286 265.046 72.1286C265.45 72.1286 265.82 72.1968 266.161 72.3282C266.502 72.4597 266.794 72.6544 267.042 72.9027C267.291 73.1558 267.485 73.4626 267.622 73.8325C267.763 74.2025 267.831 74.6212 267.831 75.0934C267.831 75.2882 267.812 75.4196 267.768 75.4878C267.724 75.5559 267.646 75.59 267.529 75.59H263.201C263.216 75.9843 263.269 76.3251 263.372 76.6172C263.469 76.9093 263.61 77.1527 263.785 77.3475C263.961 77.5422 264.17 77.6883 264.413 77.7808C264.657 77.8733 264.925 77.9219 265.226 77.9219C265.509 77.9219 265.752 77.8879 265.957 77.8246C266.161 77.7613 266.341 77.6883 266.487 77.6152C266.638 77.5373 266.76 77.4692 266.862 77.4059C266.964 77.3426 267.052 77.3085 267.13 77.3085C267.232 77.3085 267.315 77.3475 267.368 77.4254L267.734 77.8927L267.738 77.8976ZM266.692 74.8062C266.692 74.5531 266.658 74.3242 266.585 74.11C266.512 73.8958 266.409 73.7157 266.268 73.5599C266.127 73.4041 265.962 73.2824 265.762 73.1948C265.562 73.1072 265.334 73.0633 265.076 73.0633C264.545 73.0633 264.121 73.2191 263.819 73.5258C263.513 73.8325 263.318 74.261 263.24 74.8062H266.697H266.692Z" fill="#442667"></path><path d="M270.854 73.151C271.127 72.8492 271.438 72.6057 271.784 72.4159C272.13 72.2309 272.524 72.1384 272.967 72.1384C273.352 72.1384 273.702 72.2114 274.009 72.3623C274.32 72.5132 274.583 72.7274 274.798 73.0049C275.012 73.2824 275.182 73.6232 275.299 74.0224C275.416 74.4216 275.474 74.8695 275.474 75.3758C275.474 75.9065 275.406 76.3933 275.275 76.8314C275.143 77.2696 274.953 77.6445 274.71 77.956C274.467 78.2676 274.17 78.511 273.819 78.6814C273.469 78.8518 273.074 78.9394 272.636 78.9394C272.422 78.9394 272.227 78.92 272.052 78.8761C271.872 78.8372 271.711 78.7739 271.56 78.696C271.409 78.6181 271.273 78.5208 271.146 78.4088C271.02 78.2968 270.903 78.1702 270.791 78.0242L270.733 78.5743C270.698 78.7496 270.591 78.8421 270.406 78.8421H269.589V69.2515H270.854V73.151ZM270.854 77.216C271.064 77.4887 271.288 77.6785 271.531 77.7856C271.774 77.8927 272.037 77.9463 272.324 77.9463C272.914 77.9463 273.366 77.737 273.683 77.3183C273.999 76.8996 274.16 76.2618 274.16 75.4148C274.16 74.631 274.019 74.0565 273.736 73.6914C273.454 73.3263 273.055 73.1413 272.539 73.1413C272.174 73.1413 271.862 73.224 271.594 73.3895C271.326 73.5551 271.078 73.7887 270.849 74.0906V77.216H270.854Z" fill="#442667"></path><path d="M97.8097 87.8484C93.214 93.2279 86.116 97.4098 79.4708 99.6444C71.1557 102.444 61.5797 101.952 53.2792 99.3815C37.5448 94.5132 24.6535 81.5342 19.3713 66.0335C16.7473 58.3269 15.097 49.968 15.5838 41.8087C16.0852 33.3768 19.6732 23.7424 27.3213 19.2781C33.509 15.6658 41.3031 17.1215 46.3905 21.9703C51.9307 27.2525 52.3153 36.2004 50.3095 43.1719C44.4627 63.4874 20.1698 68.1317 1.95736 68.5261C-0.652059 68.5845 -0.661796 72.6398 1.95736 72.5863C20.4716 72.187 43.3916 67.7812 52.2715 49.3059C55.8789 41.8039 56.872 31.8433 53.0601 24.1951C49.7302 17.5207 42.1648 13.11 34.7504 13.1587C25.5054 13.222 18.4269 20.1447 14.7805 28.1482C10.8177 36.8479 10.8859 46.6089 12.5752 55.8538C15.944 74.295 26.0702 90.3848 42.8805 99.3815C53.065 104.834 64.7684 106.723 76.1408 104.678C85.0109 103.081 94.806 97.5997 100.687 90.711C102.376 88.7345 99.5185 85.8524 97.8195 87.8436L97.8097 87.8484Z" fill="#442667"></path><path d="M44.9836 56.8762C41.4833 57.2218 39.1806 61.0143 40.3782 64.3783C41.751 68.2291 46.7167 69.1249 50.1148 67.752C58.2887 64.4513 58.0015 53.4099 50.9035 49.1745C42.4229 44.1163 32.6667 51.4334 31.8245 60.3862C30.9434 69.8064 38.2458 77.513 47.2863 78.7593C55.6355 79.9131 63.084 75.6484 66.3409 67.9127C69.7633 59.7923 68.2736 50.3186 67.519 41.799C66.6817 32.3788 64.7587 20.8263 69.5686 12.1363C74.5002 3.23703 86.9923 2.2585 93.326 10.1841C99.3968 17.7787 95.3172 29.7158 88.9689 35.845C83.2875 41.3316 75.1428 43.0842 67.631 44.4084C65.0654 44.8612 66.151 48.7704 68.7118 48.3225C81.126 46.1367 92.7077 41.7308 98.0434 29.375C100.677 23.2653 101.442 16.0797 98.1213 10.0673C94.6453 3.79202 87.4743 -0.0101399 80.3519 0.734713C61.8134 2.67717 61.9351 24.0686 63.1376 38.0796C63.8045 45.8835 65.45 54.5929 63.8435 62.3384C62.271 69.933 56.7844 75.517 48.664 74.8598C43.8736 74.4703 39.1952 71.7879 37.0774 67.3772C34.6189 62.2606 35.7727 55.4254 41.0695 52.6213C45.4899 50.2796 52.3883 52.6359 52.3591 58.3367C52.3445 60.6443 50.8889 62.947 48.7857 63.9012C47.666 64.4075 46.2494 64.5925 45.1686 63.8817C44.4578 63.4095 43.4452 61.0824 44.9885 60.9266C47.5638 60.6686 47.5881 56.6084 44.9885 56.8665L44.9836 56.8762Z" fill="#54B688"></path><path d="M82.2797 26.6342C82.5718 22.2721 86.7002 19.3414 90.9113 20.7581C94.0805 21.8243 96.5098 24.3558 99.8738 25.0033C106.237 26.2301 112.069 21.98 113.15 15.6707C113.588 13.1148 109.679 12.0195 109.236 14.5899C108.51 18.8351 105.029 21.9411 100.551 21.0161C96.9967 20.2859 94.3678 17.2432 90.7457 16.5275C84.1784 15.2277 78.648 20.2128 78.2147 26.6342C78.0394 29.2436 82.0996 29.229 82.2749 26.6342H82.2797Z" fill="#F5B713"></path><path d="M34.6384 42.0521C38.0691 42.0521 40.8503 39.2709 40.8503 35.8402C40.8503 32.4094 38.0691 29.6282 34.6384 29.6282C31.2076 29.6282 28.4264 32.4094 28.4264 35.8402C28.4264 39.2709 31.2076 42.0521 34.6384 42.0521Z" fill="#F5B713"></path><path d="M96.6316 60.8341C96.6316 61.6082 96.0084 62.2508 95.283 62.2508C94.509 62.2508 93.9053 61.6082 93.9053 60.8341V45.83C93.881 45.3918 94.0806 44.9293 94.4554 44.6421C95.0786 44.204 95.9305 44.3305 96.3541 44.9537L104.431 56.477V45.8543C104.431 45.1046 105.029 44.462 105.779 44.462C106.529 44.462 107.157 45.1046 107.157 45.8543V60.8293C107.157 61.6033 106.534 62.246 105.779 62.246C105.38 62.246 105.005 62.0415 104.752 61.7299C104.703 61.6764 104.65 61.6277 104.625 61.5741L96.6218 50.1287V60.8244L96.6316 60.8341Z" fill="#BE1273"></path><path d="M124.663 46.4482C126.212 48.1473 127.19 50.4159 127.19 52.9718C127.19 55.5277 126.216 57.8158 124.663 59.4953C123.188 61.17 120.988 62.2557 118.685 62.2557C116.382 62.2557 114.085 61.1749 112.561 59.4953C111.013 57.8206 110.083 55.5277 110.083 52.9718C110.083 50.4159 111.008 48.1521 112.561 46.4482C114.085 44.7492 116.285 43.6879 118.685 43.6879C121.085 43.6879 123.188 44.7443 124.663 46.4482ZM124.337 52.9718C124.337 51.2192 123.661 49.5932 122.638 48.4589C121.587 47.3002 120.189 46.6284 118.685 46.6284C117.083 46.6284 115.686 47.3002 114.635 48.4589C113.583 49.5932 112.936 51.2192 112.936 52.9718C112.936 54.7244 113.588 56.3504 114.635 57.4555C115.686 58.6142 117.083 59.3103 118.685 59.3103C120.185 59.3103 121.587 58.6142 122.638 57.4555C123.665 56.3455 124.337 54.7244 124.337 52.9718Z" fill="#BE1273"></path><path d="M131.065 60.8342V45.6255C131.065 44.8271 131.664 44.2088 132.443 44.2088H140.622C141.347 44.2088 141.999 44.8271 141.999 45.6255C141.999 46.4239 141.347 47.0714 140.622 47.0714H133.845V51.7888H139.672C140.422 51.7888 141.045 52.4606 141.045 53.2055C141.045 54.0039 140.422 54.6514 139.672 54.6514H133.845V59.3931H140.622C141.347 59.3931 141.999 60.0358 141.999 60.839C141.999 61.6423 141.347 62.2557 140.622 62.2557H132.521C132.472 62.2557 132.472 62.2314 132.472 62.2314L132.448 62.2557C131.674 62.2557 131.07 61.6131 131.07 60.839L131.065 60.8342ZM137.092 41.3463C137.092 41.1661 137.194 40.9325 137.292 40.7815L138.718 38.5129C138.996 38.0504 139.395 37.7632 139.921 37.7632C140.719 37.7632 141.722 38.2792 141.722 38.7661C141.722 39.0484 141.547 39.3064 141.298 39.5401L139.624 41.1905C139.025 41.7552 138.548 41.8867 137.847 41.8867C137.423 41.8867 137.097 41.6822 137.097 41.3463H137.092Z" fill="#BE1273"></path><path d="M159.895 45.6255V60.8341C159.895 61.6082 159.243 62.2508 158.493 62.2508C157.744 62.2508 157.116 61.6082 157.116 60.8341V49.9827L153.513 55.1382C153.24 55.5228 152.836 55.7321 152.388 55.7321H152.34C151.892 55.7321 151.463 55.5277 151.191 55.1382L147.613 49.9827V60.8341C147.613 61.6082 146.989 62.2508 146.211 62.2508C145.432 62.2508 144.833 61.6082 144.833 60.8341V45.6255C144.833 44.8515 145.456 44.2088 146.211 44.2088H146.284C146.683 44.2088 147.136 44.4133 147.384 44.8028L152.359 51.9154L157.335 44.8028C157.607 44.4182 158.011 44.2088 158.459 44.2088H158.484C159.233 44.2332 159.886 44.8515 159.886 45.6255H159.895Z" fill="#BE1273"></path><path d="M165.075 45.6255C165.075 44.8271 165.674 44.2088 166.448 44.2088C167.222 44.2088 167.85 44.8271 167.85 45.6255V60.8341C167.85 61.6326 167.198 62.2508 166.448 62.2508C165.698 62.2508 165.075 61.6326 165.075 60.8341V45.6255Z" fill="#BE1273"></path><path d="M171.472 60.8341V45.6255C171.472 44.8271 172.071 44.2088 172.85 44.2088H181.029C181.754 44.2088 182.407 44.8271 182.407 45.6255C182.407 46.4239 181.754 47.0714 181.029 47.0714H174.252V51.7888H180.079C180.829 51.7888 181.452 52.4606 181.452 53.2055C181.452 54.0039 180.829 54.6514 180.079 54.6514H174.252V59.3931H181.029C181.754 59.3931 182.407 60.0357 182.407 60.839C182.407 61.6423 181.754 62.2557 181.029 62.2557H172.928C172.879 62.2557 172.879 62.2314 172.879 62.2314L172.855 62.2557C172.081 62.2557 171.477 61.6131 171.477 60.839L171.472 60.8341Z" fill="#BE1273"></path><path d="M197.557 55.2404H194.48V60.8341C194.48 61.6082 193.857 62.2508 193.078 62.2508C192.299 62.2508 191.7 61.6082 191.7 60.8341V45.6255C191.7 44.8271 192.323 44.2088 193.078 44.2088H197.552C200.526 44.2088 202.927 46.6819 202.927 49.749C202.927 52.816 200.526 55.2404 197.552 55.2404H197.557ZM194.48 52.3779H197.557C199.008 52.3779 200.132 51.19 200.156 49.749C200.132 48.2544 199.008 47.0665 197.557 47.0665H194.48V52.3779Z" fill="#BE1273"></path><path d="M212.483 62.2508C208.457 62.2508 205.258 58.9014 205.258 54.8023V45.6255C205.258 44.8271 205.857 44.2088 206.631 44.2088C207.405 44.2088 208.033 44.8271 208.033 45.6255V54.8023C208.033 57.329 210.034 59.3931 212.483 59.3931C214.932 59.3931 216.933 57.329 216.933 54.8023V45.6255C216.933 44.8271 217.556 44.2088 218.335 44.2088C219.114 44.2088 219.712 44.8271 219.712 45.6255V54.8023C219.712 58.9014 216.485 62.2508 212.488 62.2508H212.483Z" fill="#BE1273"></path><path d="M223.388 60.8341V45.6255C223.388 44.8515 223.987 44.2088 224.761 44.2088C225.535 44.2088 226.163 44.8515 226.163 45.6255V59.3931H232.94C233.665 59.3931 234.317 60.0357 234.317 60.839C234.317 61.6423 233.665 62.2557 232.94 62.2557H224.761C223.987 62.2557 223.388 61.6131 223.388 60.839V60.8341Z" fill="#BE1273"></path><path d="M236.718 45.6255C236.718 44.8271 237.316 44.2088 238.09 44.2088C238.864 44.2088 239.492 44.8271 239.492 45.6255V60.8341C239.492 61.6326 238.84 62.2508 238.09 62.2508C237.341 62.2508 236.718 61.6326 236.718 60.8341V45.6255Z" fill="#BE1273"></path><path d="M243.115 60.8341V45.6255C243.115 44.8271 243.713 44.2088 244.487 44.2088H247.438C252.262 44.2088 256.166 48.2544 256.166 53.2055C256.166 58.1566 252.267 62.2557 247.438 62.2557H244.487C243.713 62.2557 243.115 61.6131 243.115 60.839V60.8341ZM245.894 59.3883H247.442C250.743 59.3639 253.396 56.6279 253.396 53.2006C253.396 49.7733 250.748 47.0665 247.442 47.0665H245.894V59.3883Z" fill="#BE1273"></path><path d="M273.473 46.4482C275.021 48.1473 276 50.4159 276 52.9718C276 55.5277 275.026 57.8158 273.473 59.4953C271.998 61.17 269.798 62.2557 267.495 62.2557C265.192 62.2557 262.894 61.1749 261.371 59.4953C259.823 57.8206 258.898 55.5277 258.898 52.9718C258.898 50.4159 259.823 48.1521 261.371 46.4482C262.894 44.7492 265.095 43.6879 267.495 43.6879C269.895 43.6879 271.998 44.7443 273.473 46.4482ZM273.147 52.9718C273.147 51.2192 272.47 49.5932 271.448 48.4589C270.397 47.3002 268.999 46.6284 267.495 46.6284C265.893 46.6284 264.496 47.3002 263.445 48.4589C262.393 49.5932 261.746 51.2192 261.746 52.9718C261.746 54.7244 262.393 56.3504 263.445 57.4555C264.496 58.6142 265.893 59.3103 267.495 59.3103C268.994 59.3103 270.397 58.6142 271.448 57.4555C272.475 56.3455 273.147 54.7244 273.147 52.9718Z" fill="#BE1273"></path></svg> 